<svg width="30" height="28" viewBox="0 0 30 28" fill="#FD9B28" xmlns="http://www.w3.org/2000/svg">
<path d="M14.985 0.428711C6.705 0.428711 0 6.50871 0 14.0001C0 21.4916 6.705 27.5716 14.985 27.5716C23.28 27.5716 30 21.4916 30 14.0001C30 6.50871 23.28 0.428711 14.985 0.428711ZM15 24.8573C8.37 24.8573 3 19.9987 3 14.0001C3 8.00157 8.37 3.143 15 3.143C21.63 3.143 27 8.00157 27 14.0001C27 19.9987 21.63 24.8573 15 24.8573ZM15.75 7.21443H13.5V15.3573L21.375 19.6323L22.5 17.963L15.75 14.3394V7.21443Z" fill="#FD9B28"/>
</svg>
